<svg width="192" height="192" viewBox="0 0 192 192" fill="none" xmlns="http://www.w3.org/2000/svg">
  <rect width="192" height="192" rx="30" fill="#A67C52"/>
  <g transform="translate(96, 96)">
    <!-- C -->
    <path d="M-45,-30 Q-60,-30 -67.5,-22.5 Q-75,-15 -75,0 Q-75,15 -67.5,22.5 Q-60,30 -45,30 L-30,30 L-30,15 L-45,15 Q-52.5,15 -56.25,11.25 Q-60,7.5 -60,0 Q-60,-7.5 -56.25,-11.25 Q-52.5,-15 -45,-15 L-30,-15 L-30,-30 Z" fill="#000814"/>
    <!-- R -->
    <path d="M7.5,-30 L7.5,30 L22.5,30 L22.5,3.75 L37.5,3.75 Q45,3.75 48.75,0 Q52.5,-3.75 52.5,-11.25 Q52.5,-18.75 48.75,-22.5 Q45,-26.25 37.5,-26.25 L22.5,-26.25 L22.5,-30 Z M22.5,-15 L37.5,-15 Q41.25,-15 43.125,-13.125 Q45,-11.25 45,-7.5 Q45,-3.75 43.125,-1.875 Q41.25,0 37.5,0 L22.5,0 Z" fill="#000814"/>
  </g>
</svg>
