<svg width="180" height="180" viewBox="0 0 180 180" fill="none" xmlns="http://www.w3.org/2000/svg">
  <rect width="180" height="180" rx="28" fill="#A67C52"/>
  <g transform="translate(90, 90)">
    <!-- C -->
    <path d="M-42,-28 Q-56,-28 -63,-21 Q-70,-14 -70,0 Q-70,14 -63,21 Q-56,28 -42,28 L-28,28 L-28,14 L-42,14 Q-49,14 -52.5,10.5 Q-56,7 -56,0 Q-56,-7 -52.5,-10.5 Q-49,-14 -42,-14 L-28,-14 L-28,-28 Z" fill="#000814"/>
    <!-- R -->
    <path d="M7,-28 L7,28 L21,28 L21,3.5 L35,3.5 Q42,3.5 45.5,0 Q49,-3.5 49,-10.5 Q49,-17.5 45.5,-21 Q42,-24.5 35,-24.5 L21,-24.5 L21,-28 Z M21,-14 L35,-14 Q38.5,-14 40.25,-12.25 Q42,-10.5 42,-7 Q42,-3.5 40.25,-1.75 Q38.5,0 35,0 L21,0 Z" fill="#000814"/>
  </g>
</svg>
