<svg width="512" height="512" viewBox="0 0 512 512" fill="none" xmlns="http://www.w3.org/2000/svg">
  <rect width="512" height="512" rx="80" fill="#A67C52"/>
  <g transform="translate(256, 256)">
    <!-- C -->
    <path d="M-120,-80 Q-160,-80 -180,-60 Q-200,-40 -200,0 Q-200,40 -180,60 Q-160,80 -120,80 L-80,80 L-80,40 L-120,40 Q-140,40 -150,30 Q-160,20 -160,0 Q-160,-20 -150,-30 Q-140,-40 -120,-40 L-80,-40 L-80,-80 Z" fill="#000814"/>
    <!-- R -->
    <path d="M20,-80 L20,80 L60,80 L60,10 L100,10 Q120,10 130,0 Q140,-10 140,-30 Q140,-50 130,-60 Q120,-70 100,-70 L60,-70 L60,-80 Z M60,-40 L100,-40 Q110,-40 115,-35 Q120,-30 120,-20 Q120,-10 115,-5 Q110,0 100,0 L60,0 Z" fill="#000814"/>
  </g>
</svg>
